<?xml version="1.0" encoding="utf-8"?>
<!-- Generator: Adobe Illustrator 25.4.1, SVG Export Plug-In . SVG Version: 6.00 Build 0)  -->
<svg version="1.1" id="Layer_1" xmlns="http://www.w3.org/2000/svg" xmlns:xlink="http://www.w3.org/1999/xlink" x="0px" y="0px"
	 viewBox="0 0 841.89 595.28" style="enable-background:new 0 0 841.89 595.28;" xml:space="preserve">
<style type="text/css">
	.st0{fill:#363435;}
	.st1{fill:url(#SVGID_1_);}
	.st2{fill:url(#SVGID_00000070834607430862602570000003489488413172936610_);}
	.st3{fill:url(#SVGID_00000129893015139664900850000005131072291193076116_);}
	.st4{fill:url(#SVGID_00000181788861935811951840000013657570149657850752_);}
	.st5{fill:url(#SVGID_00000066509803851132869000000008015416250492935321_);}
</style>
<g>
	<path class="st0" d="M197.37,384.55v-26.76h-9.25v-1.24h19.69v1.24h-9.25v26.76H197.37z"/>
	<path class="st0" d="M219.76,384.55v-28h16.52v1.24h-15.3v25.52h15.8v1.24H219.76z M220.77,370.96v-1.24h13.9v1.24H220.77z"/>
	<path class="st0" d="M251.01,384.55v-28h1.22v26.76H267v1.24H251.01z"/>
	<path class="st0" d="M279.16,384.55v-28h16.52v1.24h-15.3v25.52h15.8v1.24H279.16z M280.17,370.96v-1.24h13.9v1.24H280.17z"/>
	<path class="st0" d="M320.71,384.71c-1.85,0-3.56-0.35-5.15-1.06c-1.58-0.71-2.96-1.7-4.14-2.98s-2.09-2.78-2.74-4.5
		s-0.97-3.59-0.97-5.62c0-2.03,0.32-3.9,0.97-5.62s1.56-3.22,2.74-4.5s2.56-2.27,4.14-2.98c1.58-0.71,3.3-1.06,5.15-1.06
		c1.7,0,3.31,0.31,4.82,0.92c1.51,0.61,2.82,1.55,3.92,2.8L328.7,361c-1.13-1.2-2.36-2.06-3.69-2.58c-1.33-0.52-2.75-0.78-4.27-0.78
		c-1.68,0-3.24,0.33-4.68,0.98c-1.44,0.65-2.69,1.57-3.76,2.74c-1.07,1.17-1.9,2.54-2.48,4.1c-0.59,1.56-0.88,3.26-0.88,5.1
		s0.29,3.54,0.88,5.1c0.59,1.56,1.42,2.93,2.48,4.1c1.07,1.17,2.32,2.09,3.76,2.74c1.44,0.65,3,0.98,4.68,0.98
		c1.51,0,2.93-0.26,4.27-0.78c1.33-0.52,2.56-1.39,3.69-2.62l0.76,0.88c-1.1,1.25-2.41,2.19-3.92,2.82
		C324.02,384.4,322.41,384.71,320.71,384.71z"/>
	<path class="st0" d="M351.95,384.71c-1.85,0-3.56-0.35-5.15-1.06c-1.58-0.71-2.96-1.7-4.14-2.98s-2.09-2.78-2.74-4.5
		s-0.97-3.59-0.97-5.62c0-2.03,0.32-3.9,0.97-5.62s1.56-3.22,2.74-4.5s2.56-2.27,4.14-2.98c1.58-0.71,3.31-1.06,5.18-1.06
		c1.85,0,3.56,0.35,5.15,1.06c1.58,0.71,2.96,1.7,4.12,2.98c1.16,1.28,2.08,2.77,2.74,4.48c0.66,1.71,0.99,3.59,0.99,5.64
		c0,2.03-0.33,3.9-0.99,5.62s-1.57,3.22-2.74,4.5c-1.16,1.28-2.54,2.27-4.12,2.98C355.55,384.36,353.83,384.71,351.95,384.71z
		 M351.95,383.47c1.68,0,3.24-0.32,4.68-0.96s2.69-1.55,3.76-2.72c1.07-1.17,1.9-2.54,2.48-4.1c0.59-1.56,0.88-3.27,0.88-5.14
		c0-1.87-0.29-3.58-0.88-5.14c-0.59-1.56-1.42-2.93-2.48-4.1c-1.07-1.17-2.32-2.08-3.76-2.72s-3-0.96-4.68-0.96
		c-1.66,0-3.2,0.32-4.64,0.96c-1.44,0.64-2.69,1.55-3.76,2.72c-1.07,1.17-1.9,2.55-2.48,4.12c-0.59,1.57-0.88,3.28-0.88,5.12
		c0,1.87,0.29,3.58,0.88,5.14c0.59,1.56,1.42,2.93,2.48,4.1c1.07,1.17,2.32,2.08,3.76,2.72
		C348.75,383.15,350.3,383.47,351.95,383.47z"/>
	<path class="st0" d="M378.85,384.55v-28h1.01l11.88,22.92h-0.54L403,356.55h1.01l0.04,28h-1.19l-0.04-26h0.4l-11.45,22.12h-0.65
		l-11.52-22.12h0.43v26H378.85z"/>
	<path class="st0" d="M443.14,384.71c-1.85,0-3.59-0.37-5.24-1.1c-1.64-0.73-2.9-1.66-3.76-2.78l0.65-0.96
		c0.82,1.01,1.97,1.87,3.47,2.58c1.5,0.71,3.11,1.06,4.84,1.06c1.75,0,3.19-0.27,4.32-0.8s1.96-1.25,2.5-2.14
		c0.54-0.89,0.81-1.89,0.81-2.98c0-1.28-0.29-2.31-0.86-3.08s-1.34-1.39-2.29-1.84c-0.95-0.45-1.98-0.83-3.1-1.12
		c-1.12-0.29-2.25-0.61-3.38-0.94c-1.14-0.33-2.18-0.76-3.13-1.28c-0.95-0.52-1.7-1.24-2.27-2.16s-0.85-2.11-0.85-3.58
		c0-1.25,0.3-2.43,0.9-3.52c0.6-1.09,1.54-1.98,2.81-2.66c1.27-0.68,2.9-1.02,4.9-1.02c1.37,0,2.72,0.23,4.05,0.7
		c1.33,0.47,2.47,1.09,3.4,1.86l-0.54,1.08c-1.01-0.83-2.12-1.44-3.35-1.84c-1.22-0.4-2.4-0.6-3.53-0.6c-1.68,0-3.08,0.27-4.19,0.82
		s-1.94,1.27-2.47,2.18c-0.53,0.91-0.79,1.91-0.79,3c0,1.31,0.29,2.35,0.86,3.12s1.34,1.39,2.29,1.84c0.95,0.45,1.99,0.83,3.11,1.12
		c1.13,0.29,2.26,0.61,3.38,0.94c1.13,0.33,2.17,0.77,3.11,1.3s1.7,1.25,2.27,2.14c0.56,0.89,0.85,2.06,0.85,3.5
		c0,1.25-0.31,2.43-0.92,3.52c-0.61,1.09-1.57,1.97-2.88,2.64C446.82,384.38,445.16,384.71,443.14,384.71z"/>
	<path class="st0" d="M465.71,384.55v-28h16.52v1.24h-15.3v25.52h15.8v1.24H465.71z M466.72,370.96v-1.24h13.9v1.24H466.72z"/>
	<path class="st0" d="M496.96,384.55v-28h8.75c3.14,0,5.6,0.81,7.36,2.44c1.76,1.63,2.65,3.91,2.65,6.84c0,1.95-0.4,3.61-1.19,5
		s-1.94,2.45-3.44,3.2c-1.5,0.75-3.29,1.12-5.38,1.12h-8.06l0.54-0.64v10.04H496.96z M498.19,374.51l-0.54-0.6h8.14
		c2.83,0,5-0.71,6.5-2.12c1.5-1.41,2.25-3.4,2.25-5.96c0-2.56-0.75-4.54-2.25-5.94c-1.5-1.4-3.67-2.1-6.5-2.1h-8.14l0.54-0.64
		V374.51z M514.67,384.55l-6.55-10.16h1.4l6.59,10.16H514.67z"/>
	<path class="st0" d="M536.99,384.55l-11.3-28h1.37l10.91,27.08h-0.68l10.91-27.08h1.3l-11.3,28H536.99z"/>
	<path class="st0" d="M561.04,384.55v-28h1.22v28H561.04z"/>
	<path class="st0" d="M589.12,384.71c-1.85,0-3.56-0.35-5.15-1.06c-1.58-0.71-2.96-1.7-4.14-2.98s-2.09-2.78-2.74-4.5
		c-0.65-1.72-0.97-3.59-0.97-5.62c0-2.03,0.32-3.9,0.97-5.62c0.65-1.72,1.56-3.22,2.74-4.5s2.56-2.27,4.14-2.98
		c1.58-0.71,3.3-1.06,5.15-1.06c1.7,0,3.31,0.31,4.82,0.92c1.51,0.61,2.82,1.55,3.92,2.8l-0.76,0.88c-1.13-1.2-2.36-2.06-3.69-2.58
		c-1.33-0.52-2.75-0.78-4.27-0.78c-1.68,0-3.24,0.33-4.68,0.98c-1.44,0.65-2.69,1.57-3.76,2.74c-1.07,1.17-1.9,2.54-2.48,4.1
		c-0.59,1.56-0.88,3.26-0.88,5.1s0.29,3.54,0.88,5.1c0.59,1.56,1.42,2.93,2.48,4.1c1.07,1.17,2.32,2.09,3.76,2.74
		c1.44,0.65,3,0.98,4.68,0.98c1.51,0,2.93-0.26,4.27-0.78c1.33-0.52,2.56-1.39,3.69-2.62l0.76,0.88c-1.1,1.25-2.41,2.19-3.92,2.82
		C592.43,384.4,590.82,384.71,589.12,384.71z"/>
	<path class="st0" d="M611.19,384.55v-28h16.52v1.24h-15.3v25.52h15.8v1.24H611.19z M612.2,370.96v-1.24h13.9v1.24H612.2z"/>
	<path class="st0" d="M648.81,384.71c-1.85,0-3.59-0.37-5.24-1.1c-1.64-0.73-2.9-1.66-3.76-2.78l0.65-0.96
		c0.82,1.01,1.97,1.87,3.47,2.58c1.5,0.71,3.11,1.06,4.84,1.06c1.75,0,3.19-0.27,4.32-0.8c1.13-0.53,1.96-1.25,2.5-2.14
		c0.54-0.89,0.81-1.89,0.81-2.98c0-1.28-0.29-2.31-0.86-3.08c-0.58-0.77-1.34-1.39-2.29-1.84c-0.95-0.45-1.98-0.83-3.1-1.12
		c-1.12-0.29-2.24-0.61-3.38-0.94c-1.14-0.33-2.18-0.76-3.13-1.28c-0.95-0.52-1.7-1.24-2.27-2.16c-0.56-0.92-0.85-2.11-0.85-3.58
		c0-1.25,0.3-2.43,0.9-3.52c0.6-1.09,1.54-1.98,2.81-2.66c1.27-0.68,2.9-1.02,4.9-1.02c1.37,0,2.72,0.23,4.05,0.7
		c1.33,0.47,2.47,1.09,3.4,1.86l-0.54,1.08c-1.01-0.83-2.12-1.44-3.35-1.84c-1.22-0.4-2.4-0.6-3.53-0.6c-1.68,0-3.08,0.27-4.19,0.82
		s-1.94,1.27-2.47,2.18c-0.53,0.91-0.79,1.91-0.79,3c0,1.31,0.29,2.35,0.86,3.12s1.34,1.39,2.29,1.84c0.95,0.45,1.99,0.83,3.11,1.12
		c1.13,0.29,2.26,0.61,3.38,0.94c1.13,0.33,2.17,0.77,3.11,1.3c0.95,0.53,1.7,1.25,2.27,2.14s0.85,2.06,0.85,3.5
		c0,1.25-0.31,2.43-0.92,3.52c-0.61,1.09-1.57,1.97-2.88,2.64C652.49,384.38,650.82,384.71,648.81,384.71z"/>
</g>
<linearGradient id="SVGID_1_" gradientUnits="userSpaceOnUse" x1="308.9125" y1="72.0295" x2="521.123" y2="384.2822">
	<stop  offset="0" style="stop-color:#FFDAA2"/>
	<stop  offset="1" style="stop-color:#89622C"/>
</linearGradient>
<path class="st1" d="M416.97,319.84V218.47h-39.06v-7.13h86.03v7.13h-39.06v101.37H416.97z"/>
<linearGradient id="SVGID_00000163057512812824132420000011732361093910089131_" gradientUnits="userSpaceOnUse" x1="365.3724" y1="33.6588" x2="577.5829" y2="345.9114">
	<stop  offset="0" style="stop-color:#FFDAA2"/>
	<stop  offset="1" style="stop-color:#89622C"/>
</linearGradient>
<path style="fill:url(#SVGID_00000163057512812824132420000011732361093910089131_);" d="M486.72,319.84v-108.5h72.54v7.13h-64.63
	v94.24h66.96v7.13H486.72z M493.7,268.22v-6.97h58.74v6.97H493.7z"/>
<linearGradient id="SVGID_00000132084264419585040290000012113868320859504513_" gradientUnits="userSpaceOnUse" x1="443.9201" y1="-19.7232" x2="656.1307" y2="292.5294">
	<stop  offset="0" style="stop-color:#FFDAA2"/>
	<stop  offset="1" style="stop-color:#89622C"/>
</linearGradient>
<path style="fill:url(#SVGID_00000132084264419585040290000012113868320859504513_);" d="M639.09,320.61
	c-8.06,0-15.53-1.37-22.4-4.11c-6.87-2.74-12.84-6.59-17.9-11.55c-5.06-4.96-8.99-10.77-11.78-17.44
	c-2.79-6.67-4.19-13.97-4.19-21.93c0-7.96,1.39-15.27,4.19-21.93c2.79-6.67,6.74-12.48,11.86-17.44s11.08-8.81,17.9-11.55
	c6.82-2.74,14.26-4.11,22.32-4.11c7.64,0,14.8,1.24,21.47,3.72c6.67,2.48,12.37,6.25,17.13,11.31l-4.96,5.12
	c-4.65-4.55-9.79-7.83-15.42-9.84c-5.63-2.02-11.6-3.02-17.9-3.02c-6.92,0-13.36,1.19-19.3,3.57c-5.94,2.38-11.11,5.73-15.5,10.07
	c-4.39,4.34-7.8,9.4-10.23,15.19c-2.43,5.79-3.64,12.09-3.64,18.91s1.21,13.12,3.64,18.91c2.43,5.79,5.84,10.85,10.23,15.19
	c4.39,4.34,9.56,7.7,15.5,10.07c5.94,2.38,12.37,3.57,19.3,3.57c6.3,0,12.27-1.01,17.9-3.02c5.63-2.01,10.77-5.35,15.42-10
	l4.96,5.11c-4.75,5.06-10.46,8.86-17.13,11.39C653.89,319.35,646.73,320.61,639.09,320.61z"/>
<linearGradient id="SVGID_00000003795993889230204290000015653837831764517556_" gradientUnits="userSpaceOnUse" x1="520.7042" y1="-71.9065" x2="732.9147" y2="240.3461">
	<stop  offset="0" style="stop-color:#FFDAA2"/>
	<stop  offset="1" style="stop-color:#89622C"/>
</linearGradient>
<path style="fill:url(#SVGID_00000003795993889230204290000015653837831764517556_);" d="M705.89,319.84v-108.5h7.91v108.5H705.89z
	 M712.87,268.22v-6.97h74.4v6.97H712.87z M786.34,319.84v-108.5h7.9v108.5H786.34z"/>
<linearGradient id="SVGID_00000148655975843276018930000018310968512428356994_" gradientUnits="userSpaceOnUse" x1="157.1347" y1="174.3387" x2="370.6419" y2="488.4994">
	<stop  offset="0" style="stop-color:#FFDAA2"/>
	<stop  offset="1" style="stop-color:#89622C"/>
</linearGradient>
<path style="fill:url(#SVGID_00000148655975843276018930000018310968512428356994_);" d="M184.96,320.22l-38.78-108.41h31.95
	l22.69,71.61l22.92-71.61h30.19l-39,108.41H184.96z"/>
<path class="st0" d="M351.37,320.33H250.76c-4.97,0-9-4.03-9-9s4.03-9,9-9h100.61c4.97,0,9,4.03,9,9S356.34,320.33,351.37,320.33z"
	/>
<path class="st0" d="M351.37,273.96h-85.75c-4.42,0-8-3.58-8-8s3.58-8,8-8h85.75c4.42,0,8,3.58,8,8S355.79,273.96,351.37,273.96z"/>
<path class="st0" d="M351.37,225.34h-72.61c-3.87,0-7-3.13-7-7s3.13-7,7-7h72.61c3.87,0,7,3.13,7,7S355.24,225.34,351.37,225.34z"/>
<path class="st0" d="M149.44,320.33H48.83c-4.97,0-9-4.03-9-9s4.03-9,9-9h100.61c4.97,0,9,4.03,9,9S154.41,320.33,149.44,320.33z"/>
<path class="st0" d="M134.58,273.96H48.83c-4.42,0-8-3.58-8-8s3.58-8,8-8h85.75c4.42,0,8,3.58,8,8S138.99,273.96,134.58,273.96z"/>
<path class="st0" d="M121.44,225.34H48.83c-3.87,0-7-3.13-7-7s3.13-7,7-7h72.61c3.87,0,7,3.13,7,7S125.31,225.34,121.44,225.34z"/>
</svg>
